<?xml version="1.0" standalone="no"?>
<!DOCTYPE svg PUBLIC "-//W3C//DTD SVG 20010904//EN"
 "http://www.w3.org/TR/2001/REC-SVG-20010904/DTD/svg10.dtd">
<svg version="1.0" xmlns="http://www.w3.org/2000/svg"
 width="1024.000000pt" height="1024.000000pt" viewBox="0 0 1024.000000 1024.000000"
 preserveAspectRatio="xMidYMid meet">
<metadata>
Created by potrace 1.11, written by Peter Selinger 2001-2013
</metadata>
<g transform="translate(0.000000,1024.000000) scale(0.100000,-0.100000)"
fill="#000000" stroke="none">
<path d="M6570 8270 c-14 -11 -29 -20 -34 -20 -5 0 -36 -14 -70 -31 -33 -17
-63 -31 -66 -31 -3 0 -14 -4 -26 -8 -27 -11 -80 -21 -124 -25 -19 -1 -75 -6
-125 -10 -49 -4 -216 -9 -370 -11 -275 -4 -336 -7 -425 -19 -25 -3 -56 -8 -70
-9 -14 -2 -34 -6 -45 -9 -11 -3 -36 -8 -57 -11 -20 -3 -56 -12 -80 -20 -23 -8
-81 -24 -128 -35 -47 -11 -106 -28 -132 -40 -25 -11 -49 -17 -52 -14 -3 4 -6
1 -6 -6 0 -7 -4 -10 -8 -7 -5 3 -20 -1 -35 -9 -14 -7 -28 -11 -31 -7 -3 3 -6
0 -6 -6 0 -7 -4 -12 -9 -12 -5 0 -53 -21 -108 -46 -54 -26 -104 -47 -110 -47
-7 0 -13 -4 -13 -8 0 -6 -21 -15 -57 -24 -10 -3 -106 -56 -171 -96 -219 -133
-226 -137 -316 -209 -48 -38 -150 -135 -251 -236 -124 -125 -179 -166 -280
-208 -39 -16 -86 -39 -105 -51 -19 -12 -51 -28 -70 -35 -119 -49 -628 -323
-670 -362 -11 -10 -22 -18 -24 -18 -3 0 -35 -18 -71 -40 -36 -22 -102 -58
-147 -81 -90 -45 -330 -191 -498 -303 -200 -133 -310 -225 -310 -259 0 -12 89
-71 140 -93 29 -13 103 -31 155 -40 21 -3 45 -7 54 -9 9 -2 54 -11 101 -20 47
-9 92 -19 100 -22 14 -5 98 -14 130 -14 8 -1 22 -3 30 -6 16 -6 31 -8 135 -17
141 -13 287 -17 610 -20 346 -3 378 -7 391 -48 3 -11 3 -34 0 -51 -13 -72 -7
-412 9 -517 20 -128 29 -220 22 -220 -3 0 -59 25 -124 56 -201 95 -221 104
-232 104 -5 0 -11 4 -13 8 -4 10 -165 87 -200 96 -15 3 -40 11 -55 18 -15 6
-33 12 -39 13 -20 5 -189 69 -194 75 -3 3 -12 6 -20 7 -28 3 -57 11 -146 41
-110 37 -177 56 -186 54 -5 -1 -8 2 -8 8 0 5 -7 7 -15 4 -8 -4 -15 -1 -15 7 0
7 -3 10 -6 6 -3 -3 -31 3 -62 14 -31 11 -70 22 -86 25 -17 3 -36 9 -42 15 -7
5 -20 12 -30 14 -11 2 -59 15 -107 28 -98 27 -144 23 -202 -17 -16 -12 -32
-20 -35 -19 -9 4 -105 -55 -124 -76 -11 -11 -24 -21 -31 -21 -6 0 -20 -8 -31
-18 -10 -10 -36 -28 -56 -41 -21 -12 -38 -27 -38 -32 0 -5 -5 -9 -11 -9 -9 0
-101 -66 -179 -129 -14 -12 -38 -31 -54 -43 -28 -22 -103 -82 -195 -158 -138
-112 -250 -227 -353 -364 -79 -106 -104 -163 -82 -194 18 -27 116 -65 199 -78
17 -3 68 -13 115 -24 47 -10 105 -22 130 -25 25 -4 52 -11 60 -15 8 -5 40 -11
70 -15 30 -4 64 -8 75 -10 11 -2 40 -6 65 -10 24 -4 47 -8 50 -10 8 -5 154
-25 225 -31 94 -8 135 -13 145 -19 6 -3 36 -8 67 -11 32 -3 74 -9 93 -14 19
-5 58 -12 85 -15 133 -17 307 -48 345 -62 8 -3 24 -8 35 -10 11 -2 31 -5 45
-8 47 -8 70 -17 70 -28 0 -14 -43 -77 -52 -77 -5 0 -8 -7 -8 -15 0 -8 -4 -15
-8 -15 -4 0 -25 -26 -45 -57 -20 -32 -54 -77 -76 -99 -51 -55 -93 -128 -89
-156 2 -18 16 -26 73 -44 211 -65 405 -131 420 -144 7 -6 25 -13 39 -16 37 -6
66 -34 66 -62 0 -13 -18 -96 -40 -184 -22 -89 -40 -170 -40 -180 0 -23 46 -46
200 -98 206 -70 250 -95 203 -116 -10 -4 -21 -6 -25 -6 -5 1 -8 -3 -8 -10 0
-6 -3 -9 -6 -5 -3 3 -11 2 -18 -4 -27 -23 -86 -58 -86 -51 0 4 -5 -1 -11 -10
-5 -10 -14 -18 -20 -18 -5 0 -20 -11 -33 -25 -13 -13 -26 -22 -29 -18 -4 3 -7
-1 -7 -10 0 -8 -11 -25 -26 -36 -14 -11 -24 -22 -24 -26 1 -3 -6 -25 -15 -50
-42 -109 7 -262 118 -370 34 -34 77 -70 94 -80 18 -11 33 -23 33 -27 0 -4 5
-8 12 -8 6 0 25 -10 42 -23 17 -13 65 -43 106 -67 41 -25 78 -49 82 -55 4 -5
8 -7 8 -2 0 4 18 -2 39 -12 38 -20 141 -52 229 -73 23 -5 42 -15 42 -20 0 -6
3 -9 6 -6 3 4 45 -7 92 -23 48 -17 139 -44 202 -61 105 -28 127 -30 262 -29
109 1 191 -5 315 -24 241 -35 446 -48 742 -47 208 1 605 17 676 27 17 3 98 7
180 10 83 3 159 7 170 9 11 2 47 7 80 10 33 4 74 9 90 12 17 2 44 6 60 9 17 2
95 15 175 29 80 13 163 27 184 30 21 4 48 8 60 11 12 2 45 7 75 10 30 3 64 8
75 10 12 3 39 7 61 9 22 2 54 9 70 16 17 6 31 11 32 11 3 -1 12 2 62 18 18 6
37 8 42 5 5 -3 9 -2 9 3 0 4 19 14 43 21 54 17 164 70 172 82 4 6 12 7 18 4 7
-4 9 -4 6 -1 -3 4 14 28 39 53 24 26 58 77 76 113 25 54 31 78 31 136 0 59 -5
78 -29 120 -46 79 -82 121 -149 170 -34 25 -80 60 -102 77 l-40 31 18 86 c29
132 27 394 -3 491 -13 41 -40 154 -44 188 -2 13 7 66 20 117 15 57 26 137 29
202 3 59 8 135 11 168 6 67 5 205 -2 238 -2 12 -7 38 -10 57 -7 37 -7 38 -18
85 -4 17 -12 50 -18 75 -5 25 -23 77 -38 115 -15 39 -31 88 -35 109 -3 22 -18
68 -32 102 -21 53 -23 66 -12 86 6 13 15 25 18 28 3 3 19 22 34 43 28 38 65
62 108 71 83 19 123 25 184 30 39 4 95 11 126 17 l55 11 190 -98 c104 -53 218
-113 254 -132 36 -19 130 -68 210 -110 80 -41 147 -79 148 -84 2 -4 8 -8 13
-8 6 0 74 -35 152 -77 78 -42 192 -102 252 -133 61 -31 159 -82 218 -113 111
-58 139 -66 193 -53 27 6 97 66 77 66 -4 0 -2 5 5 12 7 7 12 35 12 63 0 56
-18 80 -83 111 -20 10 -37 22 -37 26 0 5 -4 6 -10 3 -5 -3 -10 -1 -10 4 0 6
-7 11 -15 11 -8 0 -15 5 -15 11 0 5 -4 7 -10 4 -5 -3 -10 -1 -10 4 0 6 -7 11
-15 11 -8 0 -15 5 -15 11 0 5 -4 8 -9 4 -5 -3 -15 0 -23 7 -7 7 -29 21 -48 32
-19 10 -40 24 -45 30 -6 6 -16 12 -24 14 -8 2 -27 12 -42 23 -15 10 -32 19
-38 19 -6 0 -11 5 -11 10 0 6 -10 10 -22 10 -12 0 -19 3 -15 6 3 3 -13 16 -36
29 -23 12 -95 52 -160 88 -64 36 -114 60 -110 54 3 -7 -5 -1 -20 12 -14 12
-30 20 -36 16 -6 -3 -11 -2 -11 4 0 5 -27 20 -60 33 -33 12 -60 26 -60 30 0 5
-7 8 -15 8 -8 0 -15 3 -15 8 0 8 -49 32 -67 32 -7 0 -13 3 -13 8 0 4 -17 16
-37 27 -65 34 -187 109 -210 130 -26 22 -29 35 -10 35 20 0 175 155 187 185
17 43 21 84 22 200 1 156 -13 225 -59 293 -21 30 -43 57 -50 59 -7 3 -20 19
-31 36 -14 24 -16 41 -10 67 20 89 29 171 29 251 0 98 -3 94 94 105 95 11 315
58 442 94 204 58 313 107 313 141 0 16 -96 109 -112 109 -3 0 -41 20 -82 45
-42 25 -80 45 -84 45 -4 0 -27 14 -52 31 -25 16 -54 35 -65 40 -11 5 -38 20
-60 34 -56 35 -138 78 -153 81 -7 1 -34 16 -60 33 -59 38 -193 104 -247 121
-39 13 -157 73 -225 115 -19 12 -57 32 -83 43 -54 24 -74 41 -195 160 -46 45
-87 82 -93 82 -5 0 -9 7 -9 15 0 8 -4 15 -9 15 -6 0 -45 30 -88 68 -43 37 -82
70 -88 74 -141 105 -243 167 -307 188 -26 8 -38 17 -38 30 0 10 3 20 8 22 11
5 66 88 84 128 25 57 37 100 28 105 -5 3 -42 -4 -82 -15 -74 -21 -219 -26
-277 -11 -32 9 -34 30 -9 125 18 69 34 166 27 166 -2 0 -15 -9 -29 -20z"/>
</g>
</svg>
